<?xml version="1.0" encoding="utf-8"?>
<!-- Generator: Adobe Illustrator 22.1.0, SVG Export Plug-In . SVG Version: 6.00 Build 0)  -->
<svg version="1.1" xmlns="http://www.w3.org/2000/svg" xmlns:xlink="http://www.w3.org/1999/xlink" x="0px" y="0px"
	 viewBox="0 0 750 750" style="enable-background:new 0 0 750 750;" xml:space="preserve">
<style type="text/css">
	.st0{fill:#005537;}
	.st1{fill:#A32C2A;}
	.st2{fill:#7E2C2A;}
	.st3{fill:#BC6564;}
</style>
<g id="Layer_3">
	<path class="st0" d="M535.2,421.5c0,0-37.8-10.2-66.4,0c0,0,12,10.2,37.4,10.2C506.2,431.7,524.8,434.2,535.2,421.5z"/>
	<path class="st0" d="M218.6,413.1c0,0,37.8-9.7,66.4,0c0,0-12,9.7-37.4,9.7C247.6,422.8,229,425.2,218.6,413.1z"/>
	<path class="st0" d="M247.8,410.1c0,0-24.3-151.1,139.5-302.3l-80,19c0,0-16.5,0-10.2-19c0,0,64.8-25.4,171.4-36.8
		c0,0,11.4,8.9,0,19c0,0-31.7,2.5-50.8,10.2c0,0,95.7,185.3,87.8,316.8c0,0-11.8,2.3-12,1.5c0-0.1,0.3-0.3,0.3-0.4
		c12.9-8.5-1.2-72.8-1.2-72.8c-9.8-44.4-7.8-46.2-16.5-78.7c-5.3-19.7-9.8-33.4-11.4-38.1c-5.5-16.1-10.2-27.7-16.5-43.2
		c-8.6-21-12.9-31.5-17.8-40.6c-5.5-10.3-14.3-24.7-27.9-40.6c-44,38.6-72,77-88.9,104.1c-10.7,17.2-24.6,42.1-36.8,73.7
		c-10.3,26.8-21.3,56.1-21.6,95.2c-0.1,14.5,1.3,26.4,2.5,34.3"/>
</g>
<g id="Layer_1">
	<g>
		<path class="st1" d="M322.5,651.4c-27.2,16.4-53.6,16.9-69.2,17.1c-14.7,0.2-51.5,0.1-87-24.8c-32.7-23-57.4-62.1-57.8-99.7
			c-0.2-17.5,4.9-39.1,5.7-42.5c2.3-9.7,5.3-22.2,12.7-36.8c5-9.9,11.3-22.6,24.1-34.3c3.7-3.4,27.2-24.4,57.1-24.1
			c10.5,0.1,19.2,0.2,27.9,5.1c2.6,1.5,5.9,3.8,11.4,5.1c2.5,0.6,8.4,1.7,15.2,0c6.8-1.7,11-5.2,12.7-6.3c13.9-9.7,52,3,76.2,27.9
			c12.6,13,18.2,25.9,22.9,36.8c4.6,10.9,19.1,46.1,8.9,88.9c-0.5,2.3-3.1,12.6-8.9,25.4C368.8,601.8,354.6,631.9,322.5,651.4z"/>
		<path class="st2" d="M308.5,410.1c9.2,7.3,32.5,27.9,41.9,64.1c11,42.4-3.5,77.2-10.2,92.6c-29.4,67.9-96.4,93.2-111.8,98.6
			c8.2,1.6,19.6,3.1,33,2.5c6-0.2,25.4-1.4,44.4-8.9c40.3-15.9,60.1-53.1,64.8-62.2c22.7-44.2,14-86.1,11.4-97.8
			c-1.5-6.7-5.7-23.3-16.5-41.9c-6.8-11.6-14.6-25-30.5-35.6C325,414.8,315.2,411.6,308.5,410.1z"/>
		<path class="st3" d="M184.1,438c0,0-53.3,27.9-49.5,99.1c0,0,16.5,11.4,33,7.6C167.6,544.7,144.7,500.2,184.1,438z"/>
	</g>
</g>
<g id="Layer_2">
	<g>
		<path class="st1" d="M427,661.5c27.2,16.4,53.6,16.9,69.2,17.1c14.7,0.2,51.5,0.1,87-24.8c32.7-23,57.4-62.1,57.8-99.7
			c0.2-17.5-4.9-39.1-5.7-42.5c-2.3-9.7-5.3-22.2-12.7-36.8c-5-10-11.2-22.4-24.1-34.3c-20.7-19-45.4-24.6-57.5-24.1
			c-6.4,0.3-11.4,1.3-11.4,1.3c-8.1,1.6-9.8,3.5-17.8,5.1c-2.8,0.6-7.9,1.6-14,1.3c-8-0.4-13.7-2.8-16.5-3.8
			c-14-5.1-29.4-2.5-36.4-1.3c-23.7,4.1-38.9,20.5-47,29.2c-13,14-18.9,27.6-22.9,36.8c-4.6,10.9-19.1,46.1-8.9,88.9
			c0.5,2.3,3.1,12.6,8.9,25.4C380.7,612,394.9,642.1,427,661.5z"/>
		<path class="st2" d="M516.8,424.1c5.2-0.9,32.3-5.1,55.9,12.7c2.1,1.6,23.4,18.3,26.7,46.3c3.9,33.3-22.4,41.7-30.5,89.6
			c-5.4,32,4.4,39.7-3.8,58.4c-11.8,26.8-44.7,40.2-80,47c6.2,0,15-0.2,25.4-1.3c1.4-0.1,26.4-2.8,44.4-8.9
			c21.6-7.3,52.9-26.1,71.1-61c19-36.3,13.6-70.8,11.4-85.1c-1.4-8.8-6.6-37.1-26.7-64.8c-11.9-16.4-23-24.2-26.7-26.7
			c-8.3-5.6-20.1-13.5-36.8-14C533.2,416,522.4,421,516.8,424.1z"/>
		<path class="st3" d="M449.3,453.6c0,0-56.8,20-63.2,90.9c0,0,14.7,13.7,31.6,12.3C417.7,556.8,401.4,509.5,449.3,453.6z"/>
	</g>
</g>
</svg>
