<?xml version="1.0" encoding="utf-8"?>
<!-- Generator: Adobe Illustrator 22.1.0, SVG Export Plug-In . SVG Version: 6.00 Build 0)  -->
<svg version="1.1" id="Layer_1" xmlns="http://www.w3.org/2000/svg" xmlns:xlink="http://www.w3.org/1999/xlink" x="0px" y="0px"
	 viewBox="0 0 750 750" style="enable-background:new 0 0 750 750;" xml:space="preserve">
<style type="text/css">
	.st0{fill:#E99700;}
	.st1{fill:#FFC02A;}
	.st2{fill:#FFFFFF;stroke:#000000;stroke-miterlimit:10;}
	.st3{fill:#FF9798;}
	.st4{fill:#F28197;}
	.st5{fill:#FFF5D4;}
	.st6{fill:#E6E6E6;}
	.st7{fill:#FFE974;}
	.st8{fill:#009245;}
</style>
<g>
	<g>
		<path class="st0" d="M132.4,414.6c-11.1,6.8-20.8,14.2-22.1,24.8c-4.1,35,85.9,82,165.6,93.9c34.8,5.2,67.9,3.7,88.3,2.8
			c12.4-0.6,52.8-1.6,89.7-11c76-19.5,128.2-60.1,156-85.6c0,0-22.1-82.8-256.7-74.5C301,364.9,203.8,370.5,132.4,414.6z"/>
		<path class="st1" d="M115.8,558.1c2.8,3.1,6.8,8.3,13.4,14.9c0,0,17.1,17.3,38.1,30.3c36.3,22.5,104.9,29,119.9,30.2
			c68.8,5.9,119.9-0.9,152.1-5.4c52.3-7.3,77.3-16.4,96-25.3c11.9-5.7,36.1-18.4,58.2-41.9c14-14.9,19.7-26.1,22.5-32.7
			c4.1-9.7,7.1-20.9,7.9-33.5c2.1-32.5-12.9-57-19.3-66.3c-11.1,14.3-29,34.2-55.2,52.4c-46.3,32.3-90.9,40.1-132.5,46.9
			c-35,5.7-93,14.7-164.2-2.4c-38.4-9.2-89-22.1-122.8-66.6c-8.1-10.7-13.3-20.6-16.6-27.6c-4.1,6-9.2,14.6-13.8,25.4
			c-2.7,6.4-6.8,15.9-8.3,26.7C85.4,524,111.7,553.6,115.8,558.1z"/>
		<path class="st2" d="M372.6,478.1"/>
	</g>
	<g>
		<path class="st3" d="M616.7,403.6c-0.6,17.1-34.7,29.8-102.8,54.5c-75.2,27.3-112.7,40.9-154.3,43.2
			c-83.4,4.6-143.2-22.9-187.2-43.2c-36-16.6-70-32.7-69.9-54.5c0-22,34.6-37.7,76.1-56.6c43.4-19.7,101.3-45.2,181-41.1
			c35,1.8,58.3,8.5,100.8,20.6C514.5,341.9,617.8,371.4,616.7,403.6z"/>
		<path class="st3" d="M102.5,425.4"/>
		<path class="st4" d="M102.5,403.6c0,0-3.6,10.9,0,21.7c1.7,4.3,4.7,10.3,10,16.3c6.8,7.9,14.3,12.2,19,14.5
			c14.8,7.9,31.8,16,50.7,23.5c19.4,7.7,37.7,13.6,54.3,18.1c14.5,4.9,31.7,9.5,51.4,12.7c26.2,4.2,49.4,4.6,68.1,3.6
			c12-0.3,24.7-1.2,38-2.7c34.9-4.1,65.4-12.1,90.5-20.8c23.2-6.5,49.7-15.7,77.9-29c17.4-8.2,33.1-16.8,47.1-25.3
			c1.2-0.7,3.7-2.3,5.4-5.4c1.2-2.1,1.6-4.2,1.8-5.4c0,0,1.8-7.2,0-21.7c0,0-5.7,14.5-21,21.7c-5.9,3.2-12.5,6.4-19.6,9.5
			c-10.8,4.6-20.9,7.9-30,10.4c-12.3,3.8-24.7,7.8-37.3,12c-13.2,4.4-26.1,8.8-38.7,13.4c-13.5,4.9-29,9.4-46.4,12.9
			c-34.1,6.8-64.2,7-87.6,5.2c-11.8,0.2-24.6-0.3-38.3-1.6c-27.9-2.7-52.2-8.4-72.2-14.7c-19.2-7-38.9-14.7-59.1-23.1
			c-13.3-5.5-26.2-11.1-38.7-16.7c-3.3-2.2-7-5-10.6-8.6C109.8,416.8,105.3,409.3,102.5,403.6z"/>
	</g>
	<path class="st5" d="M595,304c7,16.7,7.6,38.9-1.8,45.3c-4.7,3.2-10.3,1.2-18.1,7.2c-1.1,0.8-8.5,6.6-7.2,10.9
		c1.1,3.5,6.7,2.3,12.7,7.2c0.8,0.7,6.3,5.4,7.2,12.7c1.1,8.4-4.2,18.6-10.9,19.9c-11.5,2.3-21.3-22.7-30.8-19.9
		c-6.1,1.8-3.2,12.4-12.7,19.9c-8.8,7-17,2.5-21.7,9.1c-5.1,7,2.6,14.2-1.8,21.7c-4.9,8.3-16.3,2.9-34.4,10.9
		c-16.5,7.3-15.9,15.9-29,18.1c-12.4,2.1-14.8-5.3-29-3.6c-1.9,0.2-20.2,2.7-29,16.3c-6.2,9.6-2.4,16.9-9.1,21.7
		c-5.6,4.1-14.7,3.6-20.8,0c-9.5-5.6-5.9-15-15.4-25.3c-8.5-9.3-23.5-14.9-34.4-10.9c-5.4,2-5.2,4.7-16.3,16.3
		c-12.7,13.3-20.3,21-29,19.9c-5.4-0.6-10.4-4.6-12.7-9.1c-2.9-5.8,0.5-9.2,0-21.7c-0.2-5.7-0.4-11.7-3.6-18.1
		c-1.2-2.4-5.7-11.4-14.5-14.5c-10-3.5-14.3,4.4-23.5,1.8c-11.8-3.4-10.1-17.9-21.7-21.7c-7.2-2.4-9.5,2.7-29,5.4
		c-10.6,1.5-20.4,2.9-23.5-1.8c-1.8-2.7,0-7.9,3.6-18.1c4.8-13.3,7.1-14.9,7.2-19.9c0.4-9.6-7.5-15.6-12.9-22.4
		c-14.8-18.6-12-44.6-10.6-57.2c2-19.1,10.8-30.8,39.8-67c35.3-44,53-66,56.1-68.8c16.6-15.1,66.9-60.9,140.3-61.6
		c56.3-0.5,97.2,25.8,124.6,43.4c18.5,11.9,32,20.8,42.9,38.1c18.5,29.4,6.2,46.1,25.3,72.4C568.6,284.1,584.9,279.9,595,304z"/>
	<path class="st6" d="M158.6,380.1c-1.6,0.8-3.6,2-3.6,3.6c-0.1,3.3,7.9,6.1,13.1,7.9c9.5,3.3,17.8,4.3,23.1,4.8
		c4.2,0.3,9.7,0.5,16.3,0c-4-0.3-8.2-0.9-12.7-1.8C179.6,391.5,167.4,385.5,158.6,380.1z"/>
	<path class="st6" d="M375.1,417.8c-3.9,0.6-6.5,2.4-6.5,4c0,1.7,3.2,3.2,5.4,3.6c3.6,0.7,6.7-0.7,9.1-1.8
		c7.6-3.6,13.2-6.6,14.5-7.2c5.2-2.7,13.1-3.6,29-5.4c10.8-1.3,10.8-0.7,14.5-1.8c7.5-2.2,7.6-4.4,19.9-10.9
		c9.9-5.2,14.9-7.8,19.9-9.1c4.2-1,8.8-1.7,9.1-3.6c0.2-1.4-1.8-3-3.6-3.6c-5.6-2-12.4,3.8-14.5,5.4c-6.4,5.1-19.2,11.4-47.1,16.5
		c-1.2,1-3,2.3-5.4,3.4c-4.8,2.2-8,1.4-12.7,1.8c-8.9,0.8-9.7,4.5-21.7,7.2C380.7,417.3,377.2,417.6,375.1,417.8z"/>
	<path class="st6" d="M251,405.4c-16.2,2-20,3-19.9,3.6c0.1,0.9,8.5-0.3,19.9,1.8c15.8,2.9,19.4,8.9,32.6,10.9
		c5.2,0.8,13.2,1.1,23.5-1.8c12-3.7,14.6-5,14.5-5.4c-0.3-1.2-20.7,6.1-43.5,1.8C266.4,414.1,257.2,409.4,251,405.4z"/>
	<path class="st6" d="M535.4,331.4c1.8-0.4,4-0.7,5.1,0.5c2.2,2.5-2.2,9.7-5.1,14.5c-5.3,8.6-11,14.6-14.8,18.3
		c-3,2.9-7.2,6.6-12.6,10.3c2.9-2.8,5.8-5.9,8.7-9.4C526.4,353.5,532,341.2,535.4,331.4z"/>
	<path class="st6" d="M187.6,476.1"/>
	<path class="st7" d="M180.4,217.1c0.6,3.7,2.1,7.8,5.4,10.9c2.7,2.5,6.1,3.2,18.1,5.4c7.4,1.4,12.4,1.6,14.5,1.8
		c7.8,0.8,18.9,6.6,32.6,29c1.8,7.9,6.3,19,13.8,31.2c9.7,15.8,25.1,32.1,47.8,34c0,0,74.7,17.8,112.5-13.7
		c3.3-4.9,14.4-19.7,35.5-26.7c21.9-7.3,40.4-1.3,45.8,0.6c2,0.2,14.1,1.9,21.7,12.7c5.3,7.5,5.5,15.2,5.4,18.1
		c-0.4,8.2-1.8,18.9-5.4,30.8c-3.2,10.3-7.2,18.8-10.9,25.3c-2,9.7-3,17.8-3.6,23.5c-0.9,8.9-0.6,10.9,0,12.7
		c2.7,8.3,10.2,9.6,16.3,16.3c4.1,4.5,8.3,12.3,8.2,26.5c-2.8,4.9-5.2,11.1-2.7,15.2c2.6,4.3,9.1,3.5,13.4,5.1
		c7.8,3,14.1,16.6,12,58.3c0,0-10.9,24.3-7.2,56.5c0,0,3.6,1.4-16.3,8.7c-12.4,2.9-20.3,11.1-19.9,18.1c0.1,2.5,1.4,6,3.7,9
		c2.6,3.3,5.6,4.8,7.1,5.5c5.6,3.2,12.4,6.4,20.1,9.1c21.1,7.2,40,6.8,52.3,5.4c7.2-3.1,15.7-7.5,24.4-13.8
		c16.5-11.8,27.1-25.3,33.5-35.1c1.3-2.7,3.3-8,2.4-14.6c-1.9-14.3-15.7-21.1-16.9-21.6c-3.2-2.5-10.8-7.7-21.7-9.1
		c-13.5-1.7-23.7,3.5-27.2,5.4c-1.6,0.3-5.8,0.7-9.1-1.8c-2.9-2.2-3.7-5.6-4.7-10.4c-0.6-2.6-1.1-6.5-0.8-11.4
		c1-17.3,2.6-30.9,3.9-40.2c1.1-7.7,2.5-15.7,1.5-26.8c-0.7-7.7-2.3-13.9-3.6-18.1c-0.1-11.9-2.6-26.3-12.7-36.2
		c-6.6-6.5-11.9-6.5-14.5-12.7c-4.2-9.8,5.7-18.2,14.5-39.8c6.4-15.8,7.7-27.2,9.9-44.1c0.9-7.3,1.8-17.3-2.6-28.3
		c-1.2-3.1-2.6-5.6-3.6-7.2c-5.4-5.1-11.9-12.3-18.1-21.7c-7.4-11.4-11.2-21.3-12.7-25.3c-6-16.9-2.3-19.1-7.2-32.6
		c-4.4-11.9-10.6-19.4-21.7-32.6c-5.9-7-14.2-15.9-25.3-25.3c-11.1-6.9-24.2-13.9-39.4-20.1c-33.7-13.8-64.5-18.4-87.4-19.7
		c0,0-56.4-4.6-114.2,39.3c-7.5,4.1-15.9,9.4-24.2,16.4C199.2,178.7,186.7,202,180.4,217.1z"/>
	<polygon class="st8" points="407.9,192.2 394.8,208.9 389,199.7 	"/>
	<polygon class="st8" points="328.8,170.1 328.8,182.7 339.7,182.7 334.3,171.9 	"/>
	<polygon class="st8" points="300.9,150.6 279.7,157.6 280.5,146.4 293.6,144.9 	"/>
	<polygon class="st8" points="339.7,137.5 359.6,130.2 359.6,141.1 	"/>
	<polygon class="st8" points="426.6,146.5 426.6,162.8 440.6,162.8 433.6,148.8 	"/>
	<polygon class="st8" points="453.8,200.8 464.6,208.1 459.2,211.7 453.8,206.3 	"/>
	<polygon class="st8" points="389.6,160.8 373.6,163.8 376.2,177.5 388.6,168.1 	"/>
	<polygon class="st8" points="236.5,176.4 246.9,188.9 257.7,180 243.4,173.7 	"/>
	<polygon class="st8" points="405.5,135.3 391.8,119.1 402,115.4 	"/>
</g>
</svg>
