<?xml version="1.0" encoding="utf-8"?>
<!-- Generator: Adobe Illustrator 22.1.0, SVG Export Plug-In . SVG Version: 6.00 Build 0)  -->
<svg version="1.1" xmlns="http://www.w3.org/2000/svg" xmlns:xlink="http://www.w3.org/1999/xlink" x="0px" y="0px"
	 viewBox="0 0 750 750" style="enable-background:new 0 0 750 750;" xml:space="preserve">
<style type="text/css">
	.st0{fill:#BD523B;}
	.st1{fill:#FFD155;}
	.st2{fill:#FBB73B;}
	.st3{fill:#FBC63B;}
	.st4{fill:#FB523B;}
	.st5{fill:#FCEE21;}
	.st6{font-family:'AllertaStencil-Regular';}
	.st7{font-size:98px;}
</style>
<g id="Layer_3">
	<path class="st0" d="M204.7,413.3l-30.2-203.8c0,0,186.2-69.2,407.6,0l-31.2,208.7c0,0-63.7,17-164,15.8c-100.3-1.2,0,0,0,0
		S282.7,431.8,204.7,413.3C126.7,394.7,204.7,413.3,204.7,413.3"/>
</g>
<g id="Layer_1">
	<path class="st1" d="M603.8,148.2c0.7,1.3-112.2,217.6-142,412.7c0,0-39.5,11.5-47-7.2c0,0,44-232.1,151.6-419.4
		C566.4,134.4,593,129,603.8,148.2z"/>
	<path class="st1" d="M306.1,193.7c-1.1,0.9,28.4,243.2-12.4,436.3c0,0,33,24.7,46.5,9.8c0,0,40.5-232.7,5.8-445.9
		C346,194,323,179.6,306.1,193.7z"/>
	<path class="st1" d="M272.5,66.3c-1.1,0.9,28.4,243.2-12.4,436.3c0,0,33,24.7,46.5,9.8c0,0,40.5-232.7,5.8-445.9
		C312.4,66.6,289.4,52.2,272.5,66.3z"/>
	<path class="st2" d="M186.6,65.7c-0.4,1.4,88,261.4,117.8,489.7c0,0,27.9,16.7,32.2-4.2c0,0-41.4-272.2-124.7-498.2
		C211.9,53,193.2,44.5,186.6,65.7z"/>
	<path class="st2" d="M396.5,559.2c1.2-0.9,34.5-277.4,119.3-491.4c0,0-23.7-31.1-39.7-15.7c0,0-94.3,258.7-115.7,502.9
		C360.5,555,377.7,573.5,396.5,559.2z"/>
	<path class="st1" d="M159.6,120.7c-0.6,1.4,93.1,269.9,117.8,505.2c0,0,32.8,17.5,39-4.1c0,0-36.5-280.7-125.8-514
		C190.6,107.8,168.6,98.9,159.6,120.7z"/>
	<path class="st2" d="M320.3,630.8c1-1.2-10.6-291.1,34.3-528.5c0,0-26.3-26.6-38.5-7.3c0,0-46.8,285.2-29.2,539.4
		C286.9,634.4,305.4,649.6,320.3,630.8z"/>
	<path class="st1" d="M340.9,108.7c-1,1.2,5.5,285.5-43.5,517c0,0,25.8,26.7,38.4,8.1c0,0,51.7-278.3,38.6-527.8
		C374.4,106,356.1,90.7,340.9,108.7z"/>
	<path class="st3" d="M237.8,135.9c-0.7,1.2,35.8,254.6,18,467.1c0,0,25.5,20.9,34.5,2.9c0,0,15.1-254.7-23.5-476.2
		C266.8,129.6,249.2,118.1,237.8,135.9z"/>
	<path class="st3" d="M436.5,157.7c-1,1.1,31.8,261.2-3.3,473c0,0,31.9,24.4,44.5,7.4c0,0,34-254.7-3.3-482.9
		C474.4,155.1,452.2,141.2,436.5,157.7z"/>
	<path class="st1" d="M362.1,193.7c-1.1,0.9,28.4,243.2-12.4,436.3c0,0,33,24.7,46.5,9.8c0,0,40.5-232.7,5.8-445.9
		C402,194,379,179.6,362.1,193.7z"/>
	<path class="st2" d="M396,631.5c1-1.2-29.4-278,4.6-505.6c0,0-30.2-24.9-42.2-6.3c0,0-33.1,273.4,1.6,516
		C359.9,635.6,380.9,649.7,396,631.5z"/>
	<path class="st1" d="M457.9,124.4c-0.8,1.2-13.7,275.3-61.6,501.8c0,0,16.2,24.2,25.9,5.5c0,0,52.7-271.9,58.9-512
		C481.1,119.7,469.5,106,457.9,124.4z"/>
	<path class="st2" d="M533.2,635.7c1-1.2-29.4-278,4.6-505.6c0,0-30.2-24.9-42.2-6.3c0,0-33.1,273.4,1.6,516
		C497.1,639.8,518.1,653.9,533.2,635.7z"/>
	<path class="st3" d="M397.3,96.1c-1,1.1,31.8,261.2-3.3,473c0,0,31.9,24.4,44.5,7.4c0,0,34-254.7-3.3-482.9
		C435.2,93.5,413,79.6,397.3,96.1z"/>
	<path class="st2" d="M434.3,634.2c-0.7-0.8,19.9-190.4-3.4-346.3c0,0,20.5-17.1,28.7-4.3c0,0,22.7,187.2-0.8,353.4
		C458.8,637,444.5,646.7,434.3,634.2z"/>
	<path class="st3" d="M401,268.9c1,0.9-65.4,196.9-51.9,358.7c0,0-37.7,17.5-49.5,4.1c0,0-7.3-194.2,60.2-366
		C359.8,265.7,385.7,255.8,401,268.9z"/>
	<path class="st2" d="M250.1,634.8c-1.2-0.7-24.5-240.1-100.1-421.5c0,0,24.1-28.7,39.1-16.3c0,0,83.4,219.9,96.2,431.8
		C285.3,628.8,267.9,646.1,250.1,634.8z"/>
	<path class="st3" d="M581.7,241.1c0.7,1-53.2,201.3-48.7,371.1c0,0-27.6,15.7-35.7,1c0,0,0.9-203.3,54.9-378.2
		C552.2,235,571.1,226.4,581.7,241.1z"/>
</g>
<g id="Layer_2">
	<path class="st4" d="M199.4,401.8c0,0,187.9,45.1,354.7,4.7c-3.2,44.5-6.9,89.7-11,135.5c-3.5,38.4-7.2,76.3-11.2,113.7
		c-23.3,7.6-50.1,14.4-80,18.6c-90.3,12.9-166.6-3.2-215.8-18.6c-2.9-21.9-5.9-43.8-9-65.7C218.3,527.2,209.1,464.5,199.4,401.8z"/>
</g>
<g id="Layer_4">
	<text transform="matrix(1 -2.528001e-03 2.528001e-03 1 250.2958 581.3483)" class="st5 st6 st7">FRIES</text>
</g>
</svg>
