<?xml version="1.0" encoding="utf-8"?>
<!-- Generator: Adobe Illustrator 22.1.0, SVG Export Plug-In . SVG Version: 6.00 Build 0)  -->
<svg version="1.1" xmlns="http://www.w3.org/2000/svg" xmlns:xlink="http://www.w3.org/1999/xlink" x="0px" y="0px"
	 viewBox="0 0 750 750" style="enable-background:new 0 0 750 750;" xml:space="preserve">
<style type="text/css">
	.st0{fill:#E89F74;}
	.st1{fill:#FF9F74;}
	.st2{fill:#FFBA9B;}
	.st3{fill:#FFCCB5;}
	.st4{fill:none;stroke:#000000;stroke-width:2;stroke-miterlimit:10;}
</style>
<g id="Layer_1">
	<path class="st0" d="M497.5,415c5.3-1,11.4-2.8,17.9-5.8c21.5-10.1,32.6-27.9,37.1-36.4c3.9-8.2,1.5-17.8-5.2-22.8
		c-5.6-4.1-13.4-4.4-19.8-0.7c-2.7,4.5-6.7,10.1-12.5,15.6c-8.7,8.3-17.7,12.9-23.8,15.3C491.2,380.2,486.8,406.9,497.5,415z"/>
	<path class="st0" d="M186.4,385.2c3.6,4.8,8.3,9.9,14.1,14.9c19,16.1,39.9,21,51.6,22.7c0,0,12.1-12.5,10.8-33.6
		c-4.5-0.2-9.8-0.8-15.5-2.3c-17.6-4.8-29-15.7-34.4-21.9c-1.3-1.7-3.8-4.4-7.8-6.3c-2.3-1.1-4.3-1.5-4.7-1.6
		c-6.4-1.2-12,1.8-14.1,3.1c-0.4,0.3-7,5.2-6.5,13.5C180.3,380.8,185.7,384.7,186.4,385.2z"/>
	<path class="st1" d="M284,164c-1.2,15.2-3,38.5-4.5,67.1c-2.4,44.8-1.2,45.9-3.1,68.8c-3.4,39.7-6.2,69.5-20.3,103.3
		c-10.1,24.1-22.4,41.9-31.3,53.2c-7.4,7.2-19.7,16.9-37,22.5c-44.3,14.3-83.6-10.6-89.8-14.7c-17.8-4.8-34.9,4.8-39.1,18.8
		c-3,10,0.8,21.6,9.4,29.7c12.5,6.5,29.9,14,51.6,18.8c23.1,5.1,43.3,5.5,57.9,4.7c14.9,0.2,42.1-1.5,72-15.6
		c38.3-18.2,59-46.6,67.3-59.5c-2.9,24.6-8.6,55.2-20.3,89.2c-12.4,36-27.8,65.1-41.5,86.8c-4.6,6-8.2,11.2-11,15.3
		c-3.8,5.6-5.2,8.1-6.3,11.3c-1.7,5-1.7,9.5-1.6,12.5c1.2,3.7,4.3,11.6,12,17.1c11,7.8,26.9,7.5,40.4-0.7c0,0,25-20.3,39.1-48.5
		c9-16.3,17.9-34,26.4-53c18.9-42.2,31.9-82.1,40.9-117.5c2.2,15.6,6.8,33.9,15.6,53.2c30.5,66.2,90.7,95.5,112.7,104.8
		c0,0,26.6,14.1,68.8,15.6c2.1-0.5,17.2-4.2,22.7-17.1c6-14.1-1.9-34.3-21.1-43.9c-10.9-4-26.1-10-43.4-19
		c-21.8-11.3-36.8-19-50.5-32.7c-9-8.9-25.2-28.3-32.9-62.6c9,7.3,24.5,17.8,46.2,23.5c37.8,9.9,69.4-1.6,80.6-6.3
		c12.2-4,27.2-10.1,43.2-19.6c14.5-8.6,26.1-17.8,35-25.8c0,0,4.7-50.1-40.7-40.7c-13.2,5.3-27.2,10.4-41.9,15.5
		c-15.8,5.4-31.1,10.1-45.8,14.3c-19-1-29.8-7.4-36-12.5c-11.3-9.4-21.6-26.9-17.2-167.4c0,0,0.7-21.4,0-64.1
		c-0.4-24.2-0.9-27.7-1.6-31.3c-1.8-8.9-8.5-43.1-39.1-61c-21.1-12.3-42.6-10.7-51.6-9.4l11-23.5l-14.1,7.8l-12.5-7.8l-6.3,6.3
		l-11-6.3l7.8,21.9c-7.8-0.2-32,0.2-54.8,17.2C288.9,125,284.7,158.2,284,164z"/>
	<path class="st1" d="M378.8,84.8"/>
	<path class="st2" d="M383.9,86.2l-6.6-13.3l10,5l5-6.6l5,8.3l6.6-15l-5,21.6C398.9,86.2,392.2,92.9,383.9,86.2z"/>
	<path class="st3" d="M390.6,86l7-14.1L387,77.2l-5.3-7l-5.3,8.8l-7-15.8l5.3,22.9C374.7,86,381.8,93.1,390.6,86z"/>
	<path class="st0" d="M67.5,512c0,0,128.3,65.7,248.8-51.6c0,0-25.4,58.8-102.6,72.4C213.6,532.7,134.8,551.1,67.5,512z"/>
	<path class="st0" d="M396,474.4c0,0,3.1,118.9,195.6,172.1c0,0-57.8,9-133.7-56.5C457.9,590,405.4,549.5,396,474.4z"/>
	<path class="st0" d="M673,443.1c-15.4,12.5-68.6,52.5-140.8,46.9c-26.2-2-47.7-9.5-63.3-16.7c9.7,7.8,24.5,17.5,44.6,23
		c28.9,7.9,52.8,2.6,64.1,0c18.4-4.3,30.9-11,45.4-18.8C644.9,465.7,661.6,452.9,673,443.1z"/>
	<path class="st0" d="M372.6,546.6c-9.7,28.2-19.4,49.6-26.6,63.9c-4,7.9-6.8,12-12.5,23.5c-5.2,10.5-6.5,14.2-11,20.3
		c-1,1.3-1.5,1.9-9.4,12.5c-4.3,5.7-4.1,5.5-4.7,6.3c-4,5.1-7.4,9.5-12.5,14.1c-1.7,1.6-4.4,3.8-7.8,6.3
		c16.7-21.6,34.6-47.6,51.6-78.2C353.3,590.9,364,567.7,372.6,546.6z"/>
	<path class="st0" d="M320.9,668.4"/>
</g>
<g id="Layer_2">
	<circle cx="455.5" cy="200.5" r="9.5"/>
	<circle cx="325.5" cy="200.5" r="9.5"/>
	<path class="st4" d="M388.5,211.5c1.7-0.8,4.1-1.5,7-1.5c1.7,0,3.9,0.1,6,1.5c0.7,0.5,2.6,1.7,3,4c0.1,0.3,0.2,1,0,1.7
		c-0.5,1.9-3.4,3.2-7,3.3c0.4,0,1.1,0,2,0c1.1,0,1.4-0.1,2,0c0.2,0,1.2,0.2,2,1c1.5,1.5,1,3.8,1,4c-0.2,1-0.7,1.6-1,2
		c-0.7,0.9-1.4,1.6-2,2c-1.7,1.1-6.8,1.3-13-1"/>
</g>
</svg>
