<?xml version="1.0" encoding="utf-8"?>
<!-- Generator: Adobe Illustrator 22.1.0, SVG Export Plug-In . SVG Version: 6.00 Build 0)  -->
<svg version="1.1" xmlns="http://www.w3.org/2000/svg" xmlns:xlink="http://www.w3.org/1999/xlink" x="0px" y="0px"
	 viewBox="0 0 750 750" style="enable-background:new 0 0 750 750;" xml:space="preserve">
<style type="text/css">
	.st0{fill:#3AA8BC;}
	.st1{fill:#FFFFFF;}
	.st2{fill:#BCE1E8;}
</style>
<g id="Layer_1">
</g>
<g id="Layer_2">
	<ellipse class="st0" cx="375" cy="375.5" rx="287" ry="278.5"/>
	<ellipse class="st1" cx="374.7" cy="375.2" rx="257.6" ry="250"/>
	<path class="st0" d="M291.9,218.5c-48.3,83-96.6,166.1-144.9,249.1h458.3c-52.5-83-105-166.1-157.5-249.1
		c-24.1,32.6-48.3,65.2-72.4,97.8C347.6,283.7,319.8,251.1,291.9,218.5z"/>
	<path class="st2" d="M258.9,275c26.8,32.1,53.5,64.2,80.3,96.3c0,32.1,0,64.2,0,96.3h70.5c0.1-32.1,0.3-64.2,0.4-96.3
		c25.2-31.1,50.4-62.1,75.6-93.2c-12.6-19.9-25.2-39.7-37.8-59.6l-72.4,97.8l-83.5-97.8C280.9,237.3,269.9,256.2,258.9,275z"/>
</g>
</svg>
