<?xml version="1.0" encoding="utf-8"?>
<!-- Generator: Adobe Illustrator 22.1.0, SVG Export Plug-In . SVG Version: 6.00 Build 0)  -->
<svg version="1.1" xmlns="http://www.w3.org/2000/svg" xmlns:xlink="http://www.w3.org/1999/xlink" x="0px" y="0px"
	 viewBox="0 0 750 750" style="enable-background:new 0 0 750 750;" xml:space="preserve">
<style type="text/css">
	.st0{fill:#FFB04A;}
	.st1{fill:none;stroke:#F7931E;stroke-miterlimit:10;}
	.st2{fill:#FFD155;}
	.st3{fill:#F7931E;stroke:#F7931E;stroke-miterlimit:10;}
	.st4{fill:#B43614;}
	.st5{fill:#009245;}
	.st6{fill:#C7B299;}
	.st7{fill:#534741;}
	.st8{fill:#996699;}
</style>
<g id="Layer_1">
	<path class="st0" d="M645,296c0,0-342,191-547,325c0,0,5-251,196-499C294,122,521,154,645,296z"/>
	<g>
		<g>
			<path class="st0" d="M327.8,48.5c0,0-55.5,23.5-34.7,73.2c0,0,212,39.2,344.2,173c0.5,0.5,1,1,1.5,1.5c5.4,0.7,17.9,1.3,30.4-6.3
				c25.1-15.4,25.1-49.3,25.1-50.7c0,0-0.2-0.3-0.6-0.8C685.5,226.8,587.6,97.3,327.8,48.5z"/>
		</g>
		<path class="st1" d="M656.5,251.5"/>
		<path class="st2" d="M293.5,121.5c0,0-155,117-205,448c0,0-8.5,27.5,0.5,45.5c1.1,1.6,2.2,3.6,3.1,6c2.4,6.1,2.2,11.7,1.9,15
			c-0.7,3.3-1.3,6.7-2,10c0.1,2.7,2.3,4.8,4.8,4.9c2.7,0.1,5-2.1,5.2-4.9c-0.2-1.9-0.5-3.9-1-6c-0.3-1.4-0.6-2.7-1-4
			c-0.4-2.1-0.8-4.6-0.9-7.2c-0.2-6,0.8-11.1,1.9-14.8c3.7-4.3,8.1-8.9,13.2-13.2c18.9-16,39.2-22.7,52.8-25.8
			c2.5,0,5.4,0.4,8.2,1.8c6.9,3.5,10.9,11.8,10.8,21.2c1,5,4.9,8.8,9.3,9.2c5.6,0.6,11.4-4.3,11.7-11.2c-0.6-3.8-1-8.1-1-13
			c0-5.3,0.4-10,1-14c0.4-3.6,1.1-7.6,2.4-11.9c3.8-12.7,10.6-21.7,15.6-27.1c4.7-4.1,10.2-8.4,16.6-12.5
			c15.7-10,30.9-14.9,42.4-17.5c5.4,2.8,7.2,6.1,8,8c2.3,5.9,0,13.9-2,21c-0.2,0.7-0.7,2.5-1,5c-0.3,2.6-0.1,4.7,0,6
			c0.1,0.5,0.8,2.8,3,4c2.9,1.5,6.5,0.1,8-2c0.8-1.1,1-2.2,1-5c0-5.9-1-10-1-10s-1.7-7.2-2-15c-0.2-7.3,2.6-12.8,6-19
			c8.1-15.1,19.6-24.7,25.8-29.5c14-10.9,26.1-16.2,35.2-20.5c14.7-6.9,35.6-17.5,61-33c4.4,3.3,6.8,6.8,8,9c3.1,5.3,3.6,10.1,4,14
			c0.5,4.5,0.3,8.5-3,27c-0.8,4.6-1.5,8.4-2,11c-3.3,17.9-5.1,32.3,2,38c0.8,0.6,2,1.5,4,2c2.4-0.1,4.3-0.7,5.7-1.6
			c8.9-5.4,9.5-24.4,2.3-47.4c0,0-7-54,4-61c4.8-2.7,14.7-8,23-9c1.9-0.2,3.9-0.2,5,1c1.8,2-0.9,5.3,0,9c0.5,2.1,2.3,4.7,8,7
			c1.5,0.1,6.3,0.2,10-3c4.7-4.3,5.5-12.7,1-20c0,0,0-15,56-36c0,0,10,25,0,55c0,0-6,19,10,22c3-0.5,4.8-1.6,5.9-2.5
			c4.9-4,6.2-12.2,3.1-20.5c-2-5.5-3.7-12-4.8-19.4c-3.1-22.5,2.5-41.1,6.8-51.6c0,0,8-14,41-29c1.2-0.4,1.7-0.2,2,0
			c1.3,0.8,1.5,3.6,0,7c0.3,2.5,1.9,4.5,4,5c2,0.4,3.7-0.8,4-1c1.7-1.3,2.5-3.6,2-6c-0.3-1.1-0.5-2.3-0.5-3.8
			c-0.1-3.5,0.8-6.4,1.5-8.2c0,0,5-3,10-1S533,171,293.5,121.5z"/>
		<path class="st3" d="M693.6,239c-30.2,0-54.6,25.5-54.6,56.9c3.4,0.4,21.8,2.4,37.5-10.4C697.6,268.2,693.8,240.4,693.6,239z"/>
		<path class="st2" d="M311,541"/>
	</g>
	<path class="st4" d="M135.5,374.9c0,0,46.7,15.6,38.3,64.6c0,0-6.7,44.3-69.2,42.5C104.6,481.9,116.8,423.7,135.5,374.9z"/>
	<ellipse class="st4" cx="375" cy="227.5" rx="56" ry="40.5"/>
	<ellipse transform="matrix(0.894 -0.448 0.448 0.894 -147.5027 192.4307)" class="st4" cx="333" cy="408" rx="45" ry="36"/>
	<path class="st4" d="M526.7,208.7c0,0,40.1,22.3,64.2,42.8C590.9,251.5,520.4,268.4,526.7,208.7z"/>
</g>
<g id="Layer_2">
	<path class="st4" d="M194.8,246.1c0,0,3-16.1,38.6-59.1C233.4,187,271.5,232.2,194.8,246.1z"/>
	<g>
		<ellipse cx="491" cy="265" rx="19" ry="14"/>
		<ellipse class="st2" cx="495" cy="262.5" rx="8" ry="4.5"/>
	</g>
	<g>
		<ellipse transform="matrix(0.2279 -0.9737 0.9737 0.2279 -197.0441 465.5148)" cx="195" cy="357" rx="14" ry="19"/>
		
			<ellipse transform="matrix(0.2279 -0.9737 0.9737 0.2279 -201.9738 462.3434)" class="st2" cx="190.5" cy="358.5" rx="4.5" ry="8"/>
	</g>
	<g>
		<ellipse transform="matrix(0.8482 -0.5296 0.5296 0.8482 -41.4051 181.5148)" cx="296" cy="163" rx="19" ry="14"/>
		
			<ellipse transform="matrix(0.8482 -0.5296 0.5296 0.8482 -43.9643 181.0625)" class="st2" cx="293.9" cy="167.2" rx="8" ry="4.5"/>
	</g>
	<g>
		<ellipse cx="390" cy="357" rx="19" ry="14"/>
		<ellipse class="st2" cx="390" cy="354.5" rx="8" ry="4.5"/>
	</g>
	<g>
		<ellipse cx="214" cy="501" rx="19" ry="14"/>
		<ellipse class="st2" cx="214" cy="498.5" rx="8" ry="4.5"/>
	</g>
</g>
<g id="Layer_3">
	<path class="st5" d="M324,358c0,0,26.7-76.4,102-79l-4.9,11.3c0,0-65.4,7.8-80.9,59.9L324,358z"/>
	<path class="st5" d="M195.5,450.9c0,0-13.4,79.8-87.1,95.2l2.9-12c0,0,63.1-18.8,69.5-72.8L195.5,450.9z"/>
	<path class="st5" d="M500,230c0,0-26.7-55.1-102-57l4.9,8.1c0,0,65.4,5.6,80.9,43.2L500,230z"/>
	<path class="st5" d="M249.7,375c0,0-43.7-68.1,0.6-129l5.9,10.8c0,0-34.2,56.3-2.7,100.6L249.7,375z"/>
	<path class="st5" d="M541.7,278.5c0,0,11,52-30.4,79.1l-1.1-8c0,0,34.1-26.6,25.1-61.2L541.7,278.5z"/>
	<g>
		<path class="st6" d="M420.3,328.1c-2.7-11,0.8-17,1.9-18.7c8.1-12.3,31.7-11.5,44.9-1.2c2.6,2.1,12.1,9.4,11.4,20.9
			c-0.6,8.7-6.8,16.6-15.9,20.4c-1,0.3-2.7,0.6-4.7,0.4c-1.7-0.2-3.1-0.6-4-1c-1.1,2.8-2.1,5.6-3.2,8.4c-3.4-1-7-2.2-10.7-3.8
			c-7.8-3.3-14.3-7.1-19.4-10.7c1.7-2.2,3.3-4.4,5-6.6c-0.9-0.7-2-1.8-3-3.2C421.3,331,420.6,329.3,420.3,328.1z"/>
		<path class="st7" d="M439.1,319.1c1.4,0.7,2.4,1.7,3,2.6c4,5.7-0.2,16.9-9.8,28.2l-4.9-2.7l7.2-9.4c0,0,10.1-11.4,0.9-13.1
			c-1.9-1-2.5-3.2-1.8-4.7C434.6,318.3,437.2,317.6,439.1,319.1z"/>
		<path class="st7" d="M426.9,361.2"/>
		<path class="st7" d="M458.3,328.4c-1.5-0.7-2.8-0.8-3.9-0.8c-6.9,0.4-13.2,10.6-16.1,25.2l5.1,2.1l3-11.5c0,0,2.7-15,9.7-8.9
			c1.9,0.9,4.1,0,4.8-1.5C461.7,331.4,460.6,328.9,458.3,328.4z"/>
	</g>
	<g>
		<path class="st6" d="M217.1,439.4c-10.9,3.1-17-0.2-18.8-1.3c-12.5-7.7-12.6-31.3-2.7-44.9c2-2.7,9-12.4,20.5-12.1
			c8.7,0.3,16.8,6.2,20.9,15.3c0.3,1,0.7,2.7,0.6,4.7c-0.1,1.7-0.5,3.1-0.9,4.1c2.8,1,5.7,1.9,8.5,2.9c-0.9,3.4-2,7-3.5,10.8
			c-3,7.9-6.7,14.5-10.1,19.7c-2.3-1.6-4.5-3.2-6.8-4.8c-0.7,0.9-1.7,2-3.1,3.1C220,438.3,218.4,439,217.1,439.4z"/>
		<path class="st7" d="M207.5,420.9c0.7-1.5,1.6-2.4,2.5-3.1c5.5-4.1,16.9-0.4,28.5,8.9l-2.5,4.9l-9.7-6.9c0,0-11.8-9.7-13.2-0.5
			c-0.9,1.9-3.1,2.6-4.6,1.9C206.9,425.4,206.1,422.8,207.5,420.9z"/>
		<path class="st7" d="M250,431.7"/>
		<path class="st7" d="M216.2,401.4c-0.6,1.5-0.7,2.8-0.6,3.9c0.6,6.9,11.1,12.8,25.7,15.2l2-5.2l-11.6-2.6c0,0-15.1-2.2-9.2-9.4
			c0.8-2-0.1-4.1-1.7-4.7C219.1,397.9,216.7,399,216.2,401.4z"/>
	</g>
	<g>
		<path class="st6" d="M256.7,222.2c-7-8.9-6.3-15.8-6-17.8c2.3-14.5,24.1-23.6,40.4-19.7c3.2,0.8,14.9,3.6,19,14.3
			c3.1,8.1,0.7,17.9-6.1,25.2c-0.8,0.7-2.2,1.7-4.1,2.3c-1.6,0.6-3.1,0.7-4.1,0.7c0.2,3,0.4,6,0.6,9c-3.5,0.5-7.3,0.8-11.3,1
			c-8.5,0.2-15.9-0.6-22.1-1.8c0.6-2.7,1.2-5.4,1.8-8.1c-1.1-0.3-2.5-0.8-4-1.7C258.9,224.4,257.5,223.1,256.7,222.2z"/>
		<path class="st7" d="M270.2,206.2c1.6,0.1,2.8,0.5,3.8,1.1c5.9,3.5,6.9,15.5,2.7,29.8l-5.5-0.4l2.6-11.6c0,0,4.4-14.6-4.6-12.4
			c-2.1-0.1-3.6-1.9-3.5-3.5C265.8,207.3,267.8,205.6,270.2,206.2z"/>
		<path class="st7" d="M276.5,249.6"/>
		<path class="st7" d="M291.5,206.7c-1.6,0-2.9,0.4-3.9,0.9c-6.1,3.2-7.6,15.1-4.2,29.6l5.6-0.2l-2.1-11.7c0,0-3.7-14.8,5.2-12.1
			c2.1,0,3.7-1.7,3.7-3.4C295.8,208,293.8,206.2,291.5,206.7z"/>
	</g>
	<g>
		<path class="st6" d="M559.1,282.2c-2.4-5.6,0.7-8.7,1.7-9.6c7.1-6.3,27.6-5.9,39.2-0.6c2.3,1.1,10.6,4.8,9.9,10.7
			c-0.5,4.4-5.9,8.5-13.9,10.4c-0.9,0.1-2.4,0.3-4.1,0.2c-1.5-0.1-2.7-0.3-3.5-0.5c-0.9,1.4-1.8,2.9-2.8,4.3c-2.9-0.5-6.1-1.2-9.4-2
			c-6.8-1.7-12.4-3.7-16.9-5.5c1.5-1.1,2.9-2.3,4.4-3.4c-0.8-0.4-1.7-0.9-2.6-1.7C560,283.7,559.4,282.9,559.1,282.2z"/>
		<path class="st7" d="M575.6,277.6c1.3,0.4,2.1,0.8,2.6,1.3c3.4,2.9-0.2,8.7-8.6,14.5l-4.2-1.4l6.3-4.8c0,0,8.8-5.9,0.8-6.7
			c-1.7-0.5-2.2-1.6-1.5-2.4C571.7,277.2,573.9,276.9,575.6,277.6z"/>
		<path class="st7" d="M564.9,299.2"/>
		<path class="st7" d="M592.3,282.4c-1.3-0.3-2.4-0.4-3.4-0.4c-6,0.2-11.5,5.4-14,12.9l4.5,1.1l2.6-5.9c0,0,2.4-7.7,8.5-4.5
			c1.7,0.5,3.6,0,4.2-0.8C595.3,283.9,594.3,282.7,592.3,282.4z"/>
	</g>
	<g>
		<path class="st6" d="M188.1,532.9c5.2,3.5,5.4,7.5,5.5,8.7c0.1,8.5-12.1,18-22.4,19.1c-2,0.2-9.4,1-13-4.2
			c-2.7-3.9-2.3-9.8,1.1-15.2c0.4-0.6,1.2-1.4,2.3-2.1c0.9-0.6,1.8-1,2.4-1.2c-0.4-1.6-0.9-3.3-1.3-4.9c2-1,4.3-1.9,6.8-2.8
			c5.1-1.8,9.7-2.9,13.5-3.5c-0.1,1.6-0.2,3.3-0.3,4.9c0.7-0.1,1.6,0,2.6,0.2C186.5,532.1,187.5,532.5,188.1,532.9z"/>
		<path class="st7" d="M181.6,544.5c-1,0.3-1.8,0.3-2.4,0.2c-4-0.8-5.7-7.2-4.7-16l3.4-0.9l-0.4,7c0,0-1.2,9,4,5.9
			c1.3-0.4,2.4,0.3,2.5,1.3C184.1,543,183,544.3,181.6,544.5z"/>
		<path class="st7" d="M173.3,521.6"/>
		<path class="st7" d="M168.6,548.5c1-0.3,1.7-0.8,2.2-1.3c3.4-3,3-9.9-0.5-17.3l-3.3,1.2l2.4,6.1c0,0,3.8,7.5-1.9,7.8
			c-1.3,0.4-2.1,1.7-1.9,2.6C165.9,548.6,167.3,549.2,168.6,548.5z"/>
	</g>
	<path class="st8" d="M239,489c0,0,16-63,81-38l-4,8c0,0-53-17-65,30H239z"/>
	<path class="st8" d="M324.4,255.1c0,0-2.3,65-71.1,54.3l2.2-8.7c0,0,55.4,5.4,57.2-43.1L324.4,255.1z"/>
	<path class="st8" d="M202,258.4c0,0,27.5,58.9-38.6,80.7l-2-8.7c0,0,51.8-20.4,31.3-64.4L202,258.4z"/>
	<path class="st8" d="M421,403c0,0,16-63,81-38l-4,8c0,0-53-17-65,30H421z"/>
	<path class="st8" d="M405.1,165.7c0,0-54.7,35.1-85.1-27.6l8.4-3.1c0,0,27.1,48.6,68,22.5L405.1,165.7z"/>
</g>
</svg>
