<?xml version="1.0" encoding="utf-8"?>
<!-- Generator: Adobe Illustrator 22.1.0, SVG Export Plug-In . SVG Version: 6.00 Build 0)  -->
<svg version="1.1" xmlns="http://www.w3.org/2000/svg" xmlns:xlink="http://www.w3.org/1999/xlink" x="0px" y="0px"
	 viewBox="0 0 750 750" style="enable-background:new 0 0 750 750;" xml:space="preserve">
<style type="text/css">
	.st0{fill:#FFFAEA;}
	.st1{fill:#FBC84E;}
	.st2{fill:#FDDD93;}
	.st3{fill:#E6E6E6;}
	.st4{fill:#FFF5D4;}
</style>
<g id="Layer_1">
	<g>
		<path class="st0" d="M219.1,205.9c-12.4-0.5-25.7-0.6-39.8,0c-21.9,0.9-41.9,3.3-59.7,6.4c-7.3,0.2-29.8,1.7-48.2,19.2
			c-7.3,7-11.9,14.5-14.7,20.3c-1.4,4.4-2.6,10.9,0,17.1c8.3,19.7,47.6,17.4,48.2,25.6c0.2,2.3-2.8,5.8-16.8,10.7
			c-27.5,7.5-47.9,24-48.2,40.6c-0.4,23.6,40.1,38.5,54.5,43.8c31.3,11.5,59.3,8.9,74.4,6.4c28.1-4.7,36.5-7.2,59.7-10.7
			c21.8-3.3,54.2-4.9,96.4,5.3c15.8,6.6,56.5,21,103.7,7.5c18.1-5.2,32.4-13.1,42.9-20.3c40.3-22.4,50.2-39.7,49.2-52.4
			c-1.2-16.2-20.3-27.9-15.7-39.5c2.6-6.6,11.2-9.4,18.9-10.7c19.1-6.1,22.7-12.1,23-16c1.3-15.5-46.1-31.1-52.4-33.1
			c-26.5-8.7-49.7-9.9-64.9-9.6c-6.5,0.3-14.3,0.1-23-1.1c-10.4-1.4-45.2-7.4-55.5-7.5c-11.5,0-84.9-4.2-96.4-5.3
			C246.4,201.9,234.4,201.8,219.1,205.9z"/>
		<path class="st1" d="M204.4,257.7c3.6,3.4,9.1,8.1,16.5,12.4c9.9,5.8,18.4,8.3,27,10.7c10.1,2.8,18.8,4.3,27,5.3
			c19.9,2.5,36.5,4.6,57.4,1.8c11.8-1.6,29.6-5.4,50.1-15.5c0.1-9.3-1.2-24.2-9.6-39.2c-22.2-39.8-72.7-41.2-76.2-41.2
			c-13.1-0.7-37.7-0.1-60.1,14.2c-9.7,6.2-15.1,12.5-16.5,14.2C208.4,234.4,205.4,249.9,204.4,257.7z"/>
		<path class="st2" d="M277.4,199c0,0-27,0.6-42.2,18.2c0,0,4.1,8,12.5,9.5C247.6,226.7,265.4,200.6,277.4,199z"/>
		<path class="st3" d="M382.5,272.2c-9.3,4.5-17.5,7.5-24.1,9.6c-4.5,1.4-11.5,3.6-20.9,5.3c-9.2,1.6-16.3,2-18.9,2.1
			c-7.6,0.3-13.5-0.1-25.1-1.1c-9.5-0.8-14.4-1.2-20.9-2.1c-17.9-2.7-29.2-6.8-29.3-6.4c-0.1,0.5,14,6.3,32.5,10.7
			c20.8,4.9,36.1,5.3,39.8,5.3c12,0.2,21.8-0.9,29.3-2.1c12.8-2.1,35.2-5.9,37.7-17.1C382.9,274.7,382.7,273.1,382.5,272.2z"/>
		<path class="st3" d="M555.3,192"/>
		<path class="st4" d="M262,365.1c15.6,4.2,19,5.8,18.9,6.4c-0.5,2.8-68.6-14.2-98.5,2.1c-2.5,1.4-9.5,5.6-19.9,7.5
			c-7.6,1.4-9.5,0.1-24.1,0c-19.9-0.2-20.9,2.1-30.4,0c-8.3-1.8-14.5-5.1-20.9-8.5c-9.7-5.2-13.1-8.9-14.7-10.7
			c-1.7-2.1-5.5-6.5-6.3-10.7c-3.1-17.1,42.8-39.7,42.9-39.5c0.1,0.1-10.3,5-22,17.1c-9.4,9.7-15.4,15.9-14.7,23.5
			c1.1,10.9,15.5,17.4,22,20.3c10.5,4.7,20.2,4.9,39.8,5.3c13.3,0.3,20.2,0.4,29.3-2.1c10.9-3,11.6-6,22-9.6
			c2.8-1,10.7-3.5,37.7-3.2C233.3,363.1,246.5,363.6,262,365.1z"/>
	</g>
</g>
<g id="Layer_2">
	<g>
		<path class="st0" d="M509.2,325.6c12.4,5.8,29.8,12.2,51.3,15c12.2,1.6,23.2,1.6,32.5,1.1c3.7-1.4,51.3-17.9,81.7,9.6
			c4.6,4.1,10.2,10.5,14.7,20.3c-1.2,4.2-2.2,10.6,0,17.1c3.2,9.3,10.2,11,19.9,21.4c5.7,6.1,15.9,17,15.7,28.9
			c-0.3,14.3-15.6,24.6-18.8,26.7c-36.2,24.2-75.8-11.4-104.8,10.7c-17.6,13.4-8.4,30.5-24.1,39.5c-26.6,15.3-60.4-29.6-117.3-35.3
			c-33.2-3.3-61.2,8.1-78.6,17.1c-8.5,6.6-32.6,23.3-63.9,20.3c-8.7-0.8-35-3.4-42.9-20.3c-9.4-20,16-40.5,7.3-54.5
			c-10.6-17-53.6,4.5-75.4-18.2c-7.2-7.5-9.6-17.2-10.5-24.6c-1-10.3,1.2-17.3,3.2-21.4c9.3-19.9,31.1-32.5,50-32.4
			c5.9,0,4.6,1.2,17,2.4c8.1,0.8,21.3,2.1,34.6,0c20.1-3.2,20.9-11.3,38.8-13.9c14-2.1,18.2,1.4,32.4,3.2
			c25.9,3.2,38.7-12.3,64.9-19.2C452.7,315,476.4,313.2,509.2,325.6z"/>
		<path class="st3" d="M540.7,379c-3.7,3.7-9.5,8.6-17.3,13.1c-4.7,2.7-12.5,6.7-28.8,10.4c-7.1,1.7-22.5,4.8-44,5.3
			c-12.1,0.3-28.2-0.2-47.1-3.2c10.5,2.4,27.7,5.6,49.2,6.4c11.1,0.4,82.3,3.1,89.1-20.6C542.6,387.7,542.7,383.9,540.7,379z"/>
		<path class="st1" d="M541.1,380.7c-3.7,3.3-9.4,7.7-17,11.8c-10.1,5.4-18.7,7.6-27.3,9.7c-10.2,2.5-18.9,3.6-27.2,4.3
			c-20,1.8-36.6,3.3-57.5-0.3c-11.8-2-29.4-6.5-49.5-17.4c0.2-9.3,2.1-24.2,11-38.8c23.6-38.9,74.1-38.5,77.6-38.4
			c13.1-0.3,37.6,1.3,59.5,16.4c9.5,6.6,14.6,13,16,14.8C537.9,357.2,540.4,372.9,541.1,380.7z"/>
		<path class="st2" d="M418.6,324.4c0,0-25.6,8.7-35.1,30.1c0,0,6.3,6.4,14.7,5.3C398.2,359.8,407.6,329.5,418.6,324.4z"/>
		<path class="st4" d="M387.7,472c-3.6,3.5-21.5,13.6-29.3,15c-13.6,2.4-13,5.4-24.1,7.5c-8.2,1.5-22.6,4.1-32.5-4.3
			c-5.6-4.8-7.3-11.2-9.4-19.2c-4.9-18.9,1.4-25.7-3.1-34.2c-9-16.9-45-10.7-45-12.8c0-1.7,24.4-3.8,42.9,4.3c3,1.3,6.2,3,8.4,6.4
			c3.6,5.6,1.2,10.6,1,20.3c-0.1,6.8-0.3,19.8,7.3,27.8c5.6,5.9,13.4,6.9,17.8,7.5c6.6,0.9,12.9-0.8,25.1-4.3
			C357.4,483,393.7,466.3,387.7,472z"/>
		<path class="st4" d="M508.2,484.8c6.9,3,14,6.2,21.2,9.6c8.2,3.9,16.2,7.8,23.8,11.8c10.9,2.8,16.8-0.4,18.9-1.7
			c1.5-1,4-3,11.5-17.5c2.7-5.2,4.8-9.7,6.3-12.8c2.8-3.3,7.2-7.7,13.4-11.6c7-4.4,13.6-6.6,18.1-7.6c6.1-0.1,13.2,0.2,21.2,1.5
			c8,1.2,14.9,3,20.7,4.9c10.4,2.5,19,3.1,25.1,3.2c7.2,0.1,11.6-0.5,15.7-3.2c3.1-2,5.1-4.6,6.3-6.4c-4.5,2.4-10.4,4.9-17.7,6.1
			c-19.3,3.4-34.8-3.9-41-7.2c-5.8-1.4-13.3-2.6-22-2.7c-9.6-0.1-17.8,1.2-24.1,2.7c-10.8,5.5-16.1,12-18.9,17.1
			c-2.6,4.7-3.5,9-8.4,18.2c-2.5,4.6-4.7,8.3-6.3,10.7c-2.6,0.8-6.6,1.7-11.5,1.9c-3.3,0.1-11.9-0.1-32.5-10.4
			c-4.9-2.4-11.4-6-18.9-10.7c-2.3-1.3-5.9-2.9-10.5-3.2c-5.7-0.3-10.5,1.6-10.5,2.1c0.1,0.6,5.2-0.8,11.5,1.1
			C503.5,481.6,506.3,483.4,508.2,484.8z"/>
	</g>
</g>
</svg>
