<?xml version="1.0" encoding="utf-8"?>
<!-- Generator: Adobe Illustrator 22.1.0, SVG Export Plug-In . SVG Version: 6.00 Build 0)  -->
<svg version="1.1" id="Layer_1" xmlns="http://www.w3.org/2000/svg" xmlns:xlink="http://www.w3.org/1999/xlink" x="0px" y="0px"
	 viewBox="0 0 750 750" style="enable-background:new 0 0 750 750;" xml:space="preserve">
<style type="text/css">
	.st0{fill:#350016;}
	.st1{fill:#FFD998;}
	.st2{fill:#F6F5FF;}
	.st3{fill:#8A0032;}
	.st4{fill:#8A6B78;}
</style>
<path class="st0" d="M367.6,655.6c-0.2-31.3-0.4-62.5-0.6-93.8c0-104.4,0-208.9,0-313.3c0.6-9.6-0.2-23.9-9.6-34.4
	c-2.2-2.5-5.2-4.7-11.3-9.1c-17.6-12.8-23.5-13.2-28.7-20.6c-4.7-6.7-5-13.9-5.2-20.6c-1.2-38.4-0.6-87.3-0.5-93.8c1.5,0,3,0,4.6,0
	c0-6.1,0-12.2,0-18.3c-1.5,0-3,0-4.6,0c0-3.8,0-7.6,0-11.4c-20.5,0-41.1,0-61.6,0c0,3.8-0.1,7.6-0.1,11.4c-1.5,0-3,0-4.6,0
	c0,6.1,0,12.2,0,18.3c1.5,0,3,0,4.6,0c0.2,7,1.3,56.6,0.1,93.8c-0.2,6.8-0.5,13.9-5.2,20.6c-6,8.5-13.3,8.1-28.7,20.6
	c-5.1,4.1-8.5,6.9-11.8,11.3c-8.4,11.3-9.3,24.3-9.1,32.1c0,104.4,0,208.9,0,313.3c0,30.5,0,61,0,91.5c-0.3,3.1-0.3,8.3,2.6,13.7
	c4.5,8.4,13.6,12.7,23.5,16c57.2,19.3,109.7,4.6,109.7,4.6c23-6.4,30.6-13.9,34-20.6C367.2,662.6,367.6,658.4,367.6,655.6z"/>
<path class="st1" d="M194,296c0,0,89.5,28.9,173.7,0v158.7c0,0-76.9,38.7-173.7,0V296z"/>
<g>
	<path class="st2" d="M417.7,304.8c0,0-57.1,150.8,73.1,148.6c0,0,118.8,2.3,64-148.6H417.7z"/>
	<path class="st2" d="M486.3,453.3c0,58.7,0,117.3,0,176c-18.3,6.9-36.6,13.7-54.9,20.6c0,0,66.3,27.4,118.8,0
		c-18.3-6.9-36.6-13.7-54.9-20.6c0-58.7,0-117.3,0-176C492.3,453.3,489.3,453.3,486.3,453.3z"/>
	<path class="st3" d="M405.8,385.1h163c-0.9,9.7-4.5,31.9-21.8,49.2c-24.9,24.7-67.8,29.3-106.4,9.9c-4.8-2.7-10.4-6.5-15.7-12.1
		C408.2,414.7,406.2,393,405.8,385.1z"/>
</g>
<path class="st4" d="M314.5,201.9c0,0,27.5,11.6,36.2,32.3l-8.2,0.7C342.6,234.8,342.2,224.6,314.5,201.9z"/>
</svg>
